Coordinates
version=1
nRows=19
nColumns=36
inDegrees=yes

Units are S.I. units (second, meters, Newtons, ...)
If the header above contains a line with 'inDegrees', this indicates whether rotational values are in degrees (yes) or radians (no).

endheader
time	pelvis_tilt	pelvis_list	pelvis_rotation	pelvis_tx	pelvis_ty	pelvis_tz	hip_flexion_r	hip_adduction_r	hip_rotation_r	knee_angle_r	knee_angle_r_beta	ankle_angle_r	subtalar_angle_r	mtp_angle_r	hip_flexion_l	hip_adduction_l	hip_rotation_l	knee_angle_l	knee_angle_l_beta	ankle_angle_l	subtalar_angle_l	mtp_angle_l	lumbar_extension	lumbar_bending	lumbar_rotation	arm_flex_r	arm_add_r	arm_rot_r	elbow_flex_r	pro_sup_r	arm_flex_l	arm_add_l	arm_rot_l	elbow_flex_l	pro_sup_l
      0.64000000	     -5.41074120	      3.01514904	      1.27576504	     -0.72332459	      1.35409132	     -0.57685863	      4.06012265	     -2.93371280	     -5.39185201	     30.07898836	      0.52497738	    -17.92966711	    -13.33127961	     -5.48716758	     30.97036612	     -1.09419127	     -5.04740506	     50.65726414	      0.88413605	    -17.28036833	    -18.48701335	     -5.48716758	    -15.38970570	     -3.56233873	     -1.62626947	     22.97810058	     -6.73489049	     -1.70099819	     95.83071815	    103.72031421	      4.24325537	    -14.81097837	     11.48147917	     81.93017493	    106.43003406
      0.65000000	     -5.42717726	      2.98086033	      1.04778275	     -0.71492592	      1.35761527	     -0.57728203	      5.68923312	     -3.16047288	     -5.05843776	     31.38270609	      0.54773155	    -17.88052178	    -12.90693433	     -5.50672374	     30.89665414	     -1.14364508	     -5.08519357	     48.65163697	      0.84913125	    -17.31431522	    -17.86886942	     -5.50672374	    -16.06801421	     -3.67971143	     -1.63011894	     22.09871803	     -7.03428008	     -1.89257695	     95.61627383	    103.81257979	      3.96718730	    -14.60331509	     11.08747050	     82.07361852	    106.63107582
      0.66000000	     -5.48280937	      2.94221855	      0.79412093	     -0.70639696	      1.36011033	     -0.57749652	      7.23233526	     -3.41325254	     -4.87575503	     32.17832823	      0.56161778	    -16.39144242	    -10.83934793	     -5.59540830	     30.78809364	     -1.30129063	     -5.36109740	     46.53128101	      0.81212406	    -17.71828348	    -17.31589354	     -5.59540830	    -16.69085959	     -3.78179073	     -1.69222538	     21.31470358	     -7.32672477	     -2.06879816	     95.32854537	    104.20750313	      3.59539254	    -14.46293561	     10.56606651	     82.33394406	    107.44331070
      0.67000000	     -5.61301508	      2.90476324	      0.54666485	     -0.69797251	      1.36155257	     -0.57774244	      8.72526569	     -3.60541737	     -4.64147127	     32.35034085	      0.56461996	    -15.44600750	     -9.31665216	     -5.66547225	     30.70445466	     -1.44342006	     -5.61507976	     44.30915206	      0.77334059	    -18.37674891	    -16.74838928	     -5.66547225	    -17.23154454	     -3.91446161	     -1.74222569	     20.54808454	     -7.81702325	     -2.10641606	     95.08545888	    104.47082144	      3.29547483	    -14.38111684	     10.12228682	     82.68561806	    107.97980175
      0.68000000	     -5.84618245	      2.86141769	      0.31965790	     -0.68955953	      1.36178315	     -0.57826145	     10.24251895	     -3.79431899	     -4.53854969	     32.08311171	      0.55995593	    -14.91297735	     -8.11985764	     -5.70031325	     30.68293137	     -1.55563165	     -5.87129216	     42.02732385	      0.73351518	    -19.18915614	    -16.02897654	     -5.70031325	    -17.63509616	     -4.02301959	     -1.76667509	     19.72402610	     -8.53969814	     -2.03936271	     95.02763242	    104.59940624	      3.01738082	    -14.30918336	      9.76728808	     83.11380127	    108.23193038
      0.69000000	     -6.02011923	      2.75859839	      0.13373407	     -0.68105120	      1.36109571	     -0.57884116	     11.57636257	     -3.87547930	     -4.44111017	     31.41117744	      0.54822847	    -14.38751130	     -6.78317491	     -5.73020530	     30.54391639	     -1.69138308	     -6.06101143	     39.67962850	      0.69254016	    -20.07503763	    -15.32873959	     -5.73020530	    -18.08304599	     -4.04462939	     -1.81362976	     18.86785266	     -9.41271715	     -1.91701721	     95.18341978	    104.71048285	      2.71759325	    -14.29398472	      9.36683165	     83.70990569	    108.42769584
      0.70000000	     -6.28981266	      2.43131974	     -0.01278947	     -0.67231729	      1.35923563	     -0.57934284	     12.89097963	     -3.64663144	     -4.39198543	     30.38522983	      0.53032230	    -14.26878326	     -6.24436994	     -5.73860267	     30.50968054	     -2.07286251	     -6.18345167	     37.43390465	      0.65334489	    -20.42055584	    -14.81046387	     -5.73860267	    -18.30741564	     -3.78031441	     -1.82479279	     17.98133911	    -10.37040103	     -1.82893584	     95.29199267	    104.75123492	      2.35323318	    -14.37862707	      9.12424702	     84.33774654	    108.50782518
      0.71000000	     -6.34357131	      2.43952191	     -0.31540549	     -0.66342269	      1.35683780	     -0.57965903	     13.96506800	     -3.74329363	     -4.00609597	     29.22062079	      0.50999604	    -14.35277073	     -4.76576693	     -5.77234141	     30.03458134	     -2.21603745	     -6.73015361	     34.84096894	      0.60808962	    -21.97157994	    -13.54422356	     -5.77234141	    -18.96028025	     -3.97129420	     -1.85771232	     17.05765740	    -11.55541968	     -1.52445193	     96.08076482	    104.91848900	      1.84588622	    -14.53896948	      8.37891211	     85.61576703	    108.69723350
      0.72000000	     -6.67400961	      2.31028913	     -0.57711208	     -0.65439246	      1.35274924	     -0.58009924	     15.30799721	     -3.65045108	     -3.63662594	     27.98784521	      0.48848005	    -14.59408814	     -4.24454865	     -5.79488454	     29.89481994	     -2.43371673	     -7.05052772	     32.39338637	      0.56537125	    -23.05503526	    -12.52488516	     -5.79488454	    -19.09932139	     -4.02619067	     -1.84939254	     16.00287551	    -12.90361444	     -1.22838130	     96.84252752	    104.99768201	      1.24998747	    -14.76867116	      7.87516454	     86.86504649	    108.79260223
      0.73000000	     -6.93115965	      2.19307044	     -0.87192840	     -0.64518837	      1.34770409	     -0.58055220	     16.53411395	     -3.56362238	     -3.28958803	     26.69167526	      0.46585762	    -14.90246558	     -4.06151630	     -5.82204585	     29.61401334	     -2.66674186	     -7.47398276	     29.88111496	      0.52152384	    -24.40715189	    -11.47117078	     -5.82204585	    -19.28860686	     -4.13500225	     -1.83182360	     14.91478161	    -14.29230687	     -1.03819449	     97.74447569	    105.09249325	      0.55001995	    -15.05453749	      7.26076950	     88.37750828	    108.93563282
      0.74000000	     -7.30275886	      2.02091214	     -1.11747204	     -0.63583633	      1.34142366	     -0.58111129	     17.78387588	     -3.38496975	     -2.84584510	     25.26772861	      0.44100506	    -15.15925161	     -3.98284480	     -5.84014932	     29.45232951	     -2.89259753	     -7.61033815	     27.44723191	      0.47904457	    -25.44046238	    -10.53024931	     -5.84014932	    -19.27199577	     -4.16994940	     -1.85283177	     13.74689024	    -15.80684645	     -0.86898740	     98.73820419	    105.17306091	     -0.24669685	    -15.44522343	      6.73587901	     89.96622624	    109.05008632
      0.75000000	     -7.68336565	      1.84981083	     -1.36759808	     -0.62621632	      1.33404115	     -0.58164139	     18.99108300	     -3.18766844	     -2.44852322	     23.82091002	      0.41575331	    -15.57644774	     -4.04921557	     -5.85893516	     29.25520274	     -3.14793088	     -7.81469615	     24.99072254	      0.43617039	    -26.59311921	     -9.59631373	     -5.85893516	    -19.23116569	     -4.18435312	     -1.93321543	     12.54701701	    -17.36762841	     -0.77587005	    100.00416216	    105.28347783	     -1.23585421	    -15.95452060	      6.08279941	     91.87658789	    109.20667055
      0.76000000	     -8.05713017	      1.70171624	     -1.65287541	     -0.61642051	      1.32557007	     -0.58198903	     20.15854340	     -2.97232040	     -2.15391813	     22.36127414	      0.39027786	    -16.21300158	     -4.29724795	     -5.88221349	     29.03007790	     -3.40731311	     -8.09898995	     22.58545990	      0.39419064	    -27.65306889	     -8.84747950	     -5.88221349	    -19.16387229	     -4.22653873	     -2.06593546	     11.33015519	    -18.94237729	     -0.74163596	    101.39727432	    105.40366285	     -2.42115510	    -16.55955233	      5.23171557	     93.99042718	    109.40313450
      0.77000000	     -8.39467175	      1.59259838	     -1.97017493	     -0.60637883	      1.31613386	     -0.58220725	     21.15288351	     -2.72504476	     -1.66766492	     20.69461099	      0.36118910	    -17.41152892	     -5.09927665	     -5.96106027	     28.73217593	     -3.62918794	     -8.38722697	     20.22266333	      0.35295206	    -28.49093507	     -8.42668027	     -5.96106027	    -19.07564309	     -4.33925999	     -2.45396829	     10.38095395	    -20.54538617	     -0.38301311	    102.54328705	    105.57106838	     -4.00422281	    -17.18332493	      3.83311507	     96.41501594	    109.77523597
      0.78000000	     -8.71372724	      1.51913489	     -2.30207997	     -0.59605491	      1.30569930	     -0.58248354	     22.05513446	     -2.55388284	     -1.36100811	     19.00958315	      0.33177982	    -18.15323845	     -4.81879499	     -5.99616012	     28.39489956	     -3.82814211	     -8.78660099	     17.94770511	      0.31324655	    -28.74472197	     -7.56072622	     -5.99616012	    -18.99138931	     -4.49456251	     -2.57467983	      8.99467689	    -22.25434846	     -0.58032190	    104.17485086	    105.66126360	     -5.40505416	    -17.88517203	      2.72724493	     98.84522735	    109.93950376
      0.79000000	     -9.09576334	      1.42857555	     -2.54876614	     -0.58564977	      1.29402765	     -0.58286643	     22.99171452	     -2.38496825	     -1.21690095	     17.37365790	      0.30322753	    -18.93900556	     -4.53033728	     -6.02287092	     28.19518688	     -4.01157651	     -9.12098002	     15.83954302	      0.27645218	    -28.80453315	     -6.66743631	     -6.02287092	    -18.79871366	     -4.59250000	     -2.76907904	      7.45461869	    -24.07797074	     -0.89528551	    105.92627889	    105.72463659	     -6.89508672	    -18.66070835	      1.58407730	    101.39452461	    110.06466505
      0.80000000	     -9.47584466	      1.35120613	     -2.73638092	     -0.57530528	      1.28126267	     -0.58323037	     23.94380545	     -2.24730477	     -1.19438474	     15.83544539	      0.27638066	    -19.86868624	     -4.30309634	     -5.99428609	     28.04036015	     -4.14891411	     -9.25102022	     13.83136037	      0.24140278	    -29.09656100	     -6.27707700	     -5.99428609	    -18.59829655	     -4.69059427	     -2.97731691	      5.79953894	    -25.96867234	     -1.45161635	    107.71220584	    106.63152034	     -8.35657571	    -19.52834113	      0.38695460	    103.87342793	    111.14013236
      0.81000000	     -9.85466933	      1.24304063	     -2.85819896	     -0.56477045	      1.26746670	     -0.58352291	     24.82740499	     -2.10374274	     -1.30393626	     14.31166464	      0.24978567	    -20.77763540	     -3.81929654	     -5.98391566	     27.96538733	     -4.35595877	     -9.48233159	     12.05568074	      0.21041132	    -28.88195736	     -5.69057364	     -5.98391566	    -18.37944465	     -4.77873992	     -3.29663805	      4.00704613	    -27.57214825	     -2.47754277	    109.56979263	    107.20694665	    -10.07872812	    -20.34643915	     -1.13342338	    106.46446847	    111.80894875
      0.82000000	    -10.09128363	      1.14662414	     -3.03518819	     -0.55420543	      1.25291691	     -0.58370064	     25.47496667	     -1.94493307	     -1.24008888	     12.71324636	      0.22188801	    -21.70021409	     -2.85498710	     -6.07792752	     27.75499122	     -4.61010645	     -9.90906679	     10.42471405	      0.18194558	    -28.80581054	     -4.61990480	     -6.07792752	    -18.28912351	     -4.91491995	     -3.53763130	      2.20997331	    -29.34876212	     -3.33884626	    111.46084634	    105.65290021	    -11.78522656	    -21.36123625	     -2.36180594	    109.32189713	    110.02934823
